<?xml version="1.0" encoding="utf-8"?><svg viewBox="0 0 13 13" xmlns="http://www.w3.org/2000/svg" xmlns:xlink="http://www.w3.org/1999/xlink"><style>:root>svg{display:none}:root>svg:target{display:block}</style><svg fill="none" viewBox="0 0 9 7" id="angle-down" xmlns="http://www.w3.org/2000/svg"><path d="M4.035 6.402a.644.644 0 00.902 0l3.72-3.718c.273-.274.273-.684 0-.93l-.602-.629c-.274-.246-.684-.246-.93 0L4.473 3.777 1.848 1.125c-.246-.246-.657-.246-.93 0l-.602.629c-.273.246-.273.656 0 .93l3.72 3.718z" fill="#fff"/></svg><svg fill="#1565D8" viewBox="0 0 9 7" id="angle-down-blue" xmlns="http://www.w3.org/2000/svg"><path d="M4.035 6.402a.644.644 0 00.902 0l3.72-3.718c.273-.274.273-.684 0-.93l-.602-.629c-.274-.246-.684-.246-.93 0L4.473 3.777 1.848 1.125c-.246-.246-.657-.246-.93 0l-.602.629c-.273.246-.273.656 0 .93l3.72 3.718z"/></svg><svg fill="none" viewBox="0 0 13 13" id="angle-right" xmlns="http://www.w3.org/2000/svg"><path d="M5.57 1.582c-.273.273-.246.684 0 .957L8.88 5.656H1.03c-.383 0-.656.301-.656.657v.875c0 .382.273.656.656.656H8.88L5.57 10.988a.713.713 0 000 .957l.602.602c.273.246.683.246.93 0l5.332-5.332c.246-.246.246-.656 0-.93L7.102.98c-.247-.246-.657-.246-.93 0l-.602.602z" fill="#1565D8"/></svg></svg>